<?xml version="1.0" encoding="UTF-8" standalone="no"?>
<!-- Created with Inkscape (http://www.inkscape.org/) -->

<svg
   xmlns:dc="http://purl.org/dc/elements/1.1/"
   xmlns:cc="http://creativecommons.org/ns#"
   xmlns:rdf="http://www.w3.org/1999/02/22-rdf-syntax-ns#"
   xmlns:svg="http://www.w3.org/2000/svg"
   xmlns="http://www.w3.org/2000/svg"
   xmlns:sodipodi="http://sodipodi.sourceforge.net/DTD/sodipodi-0.dtd"
   xmlns:inkscape="http://www.inkscape.org/namespaces/inkscape"
   width="150mm"
   height="150mm"
   viewBox="0 0 531.49606 531.49606"
   id="svg2"
   version="1.1"
   inkscape:version="0.91 r13725"
   sodipodi:docname="nose.svg"
   inkscape:export-filename="/Users/yanamal/projects/DoggieAndMe/iconHighRes.png"
   inkscape:export-xdpi="86.698669"
   inkscape:export-ydpi="86.698669">
  <defs
     id="defs4" />
  <sodipodi:namedview
     id="base"
     pagecolor="#ffffff"
     bordercolor="#666666"
     borderopacity="1.0"
     inkscape:pageopacity="0.0"
     inkscape:pageshadow="2"
     inkscape:zoom="1.0893778"
     inkscape:cx="266.66599"
     inkscape:cy="265.74803"
     inkscape:document-units="mm"
     inkscape:current-layer="layer3"
     showgrid="true"
     showguides="true"
     inkscape:guide-bbox="true"
     inkscape:window-width="1440"
     inkscape:window-height="781"
     inkscape:window-x="0"
     inkscape:window-y="1"
     inkscape:window-maximized="1"
     inkscape:snap-global="false"
     inkscape:snap-grids="true"
     fit-margin-top="0"
     fit-margin-left="0"
     fit-margin-right="0"
     fit-margin-bottom="0">
    <inkscape:grid
       type="xygrid"
       id="grid3338"
       units="mm"
       empspacing="3"
       spacingx="35.43307"
       spacingy="35.43307"
       dotted="false"
       originx="106.29919"
       originy="106.2992" />
    <sodipodi:guide
       position="267.12493,118.4162"
       orientation="1,0"
       id="guide4177" />
    <sodipodi:guide
       position="212.5984,111.80693"
       orientation="0,1"
       id="guide4225" />
    <sodipodi:guide
       position="324.40533,264.92185"
       orientation="0,1"
       id="guide4227" />
  </sodipodi:namedview>
  <metadata
     id="metadata7">
    <rdf:RDF>
      <cc:Work
         rdf:about="">
        <dc:format>image/svg+xml</dc:format>
        <dc:type
           rdf:resource="http://purl.org/dc/dcmitype/StillImage" />
        <dc:title />
      </cc:Work>
    </rdf:RDF>
  </metadata>
  <g
     inkscape:groupmode="layer"
     id="layer2"
     inkscape:label="background"
     style="display:inline"
     transform="translate(106.29919,106.29924)"
     sodipodi:insensitive="true">
    <circle
       style="fill:#5f9ea0;fill-opacity:1;stroke:none;stroke-width:53.1496048;stroke-linecap:square;stroke-miterlimit:4;stroke-dasharray:none;stroke-opacity:1"
       id="path4236"
       cx="159.44882"
       cy="159.44882"
       r="265.74802" />
  </g>
  <g
     inkscape:groupmode="layer"
     id="layer3"
     inkscape:label="nose"
     transform="translate(106.29919,106.29924)">
    <path
       style="color:#000000;font-style:normal;font-variant:normal;font-weight:normal;font-stretch:normal;font-size:medium;line-height:normal;font-family:sans-serif;text-indent:0;text-align:start;text-decoration:none;text-decoration-line:none;text-decoration-style:solid;text-decoration-color:#000000;letter-spacing:normal;word-spacing:normal;text-transform:none;direction:ltr;block-progression:tb;writing-mode:lr-tb;baseline-shift:baseline;text-anchor:start;white-space:normal;clip-rule:nonzero;display:inline;overflow:visible;visibility:visible;opacity:1;isolation:auto;mix-blend-mode:normal;color-interpolation:sRGB;color-interpolation-filters:linearRGB;solid-color:#000000;solid-opacity:1;fill:#ecdc81;fill-opacity:1;fill-rule:evenodd;stroke:none;stroke-width:53.1496048;stroke-linecap:round;stroke-linejoin:miter;stroke-miterlimit:4;stroke-dasharray:none;stroke-dashoffset:0;stroke-opacity:1;color-rendering:auto;image-rendering:auto;shape-rendering:auto;text-rendering:auto;enable-background:accumulate"
       d="M 160.15039,27.837891 C 112.29458,27.644619 65.467526,37.906447 24.976562,53.824219 -12.529021,68.56838 -38.263672,94.564624 -38.263672,126.50391 c 0,25.36356 16.955078,42.01171 16.955078,42.01171 10.469689,10.47979 27.4873598,10.37659 37.830078,-0.22851 10.342718,-10.60509 10.018023,-27.61835 -0.720703,-37.82227 0,0 -0.914062,-0.77916 -0.914062,-3.96093 0,-3.38255 12.304001,-20.24746 38.898437,-20.18555 31.934256,0.0743 58.159224,28.12506 57.507704,53.75648 -0.89956,35.38913 -29.996337,49.02157 -81.708876,52.61463 -14.107178,0.98019 -20.952584,1.04482 -34.613281,-1.57617 16.559563,12.05634 45.105988,56.90743 66.777154,72.02997 20.977371,14.6384 83.461803,24.24849 95.368413,32.9636 0.0409,-7.60209 0.71695,-11.78329 0.71976,-22.64415 0.009,-33.66361 -1.48573,-115.53637 3.02335,-115.56867 4.50908,-0.0323 4.58011,81.83666 4.88124,115.68694 0.11273,12.67229 0.44883,6.94903 0.89282,22.77211 31.54367,-17.48031 66.48078,-17.40142 90.01533,-32.43459 23.4701,-14.99199 58.81047,-66.1256 67.611,-72.94779 -11.77448,1.41668 -24.22477,4.08041 -41.13477,2.26953 -41.34028,-4.42709 -74.59123,-20.85393 -74.71825,-52.43552 -0.13947,-34.67591 29.87767,-54.3533 58.2242,-54.57815 15.45703,-0.12261 37.55774,6.59372 37.89844,22.97852 0,-1.61604 -4.01366,2.76367 -4.01368,2.76367 -10.24401,10.72426 -9.7287,27.75803 1.14454,37.84375 10.87325,10.08573 27.89698,9.32069 37.82226,-1.69922 0,0 17.09571,-14.71195 17.0957,-41.38672 0,-15.82532 -6.46083,-31.801819 -17.30078,-44.076169 C 328.4374,70.37604 313.85714,61.158613 295.98438,53.787109 258.19329,38.200426 215.42547,28.061126 160.15039,27.837891 Z"
       id="path4166"
       inkscape:connector-curvature="0"
       sodipodi:nodetypes="ssscscsssscscszscscsssccscssss" />
  </g>
</svg>
