<?xml version="1.0" encoding="UTF-8" standalone="no"?>
<!-- Created with Inkscape (http://www.inkscape.org/) -->

<svg
   xmlns:dc="http://purl.org/dc/elements/1.1/"
   xmlns:cc="http://creativecommons.org/ns#"
   xmlns:rdf="http://www.w3.org/1999/02/22-rdf-syntax-ns#"
   xmlns:svg="http://www.w3.org/2000/svg"
   xmlns="http://www.w3.org/2000/svg"
   xmlns:sodipodi="http://sodipodi.sourceforge.net/DTD/sodipodi-0.dtd"
   xmlns:inkscape="http://www.inkscape.org/namespaces/inkscape"
   width="150mm"
   height="150mm"
   viewBox="0 0 531.49606 531.49606"
   id="svg2"
   version="1.1"
   inkscape:version="0.91 r13725"
   sodipodi:docname="nose.svg"
   inkscape:export-filename="/Users/yanamal/projects/DoggieAndMe/icon.png"
   inkscape:export-xdpi="33.866669"
   inkscape:export-ydpi="33.866669">
  <defs
     id="defs4" />
  <sodipodi:namedview
     id="base"
     pagecolor="#ffffff"
     bordercolor="#666666"
     borderopacity="1.0"
     inkscape:pageopacity="0.0"
     inkscape:pageshadow="2"
     inkscape:zoom="0.90781482"
     inkscape:cx="250.87714"
     inkscape:cy="296.90445"
     inkscape:document-units="mm"
     inkscape:current-layer="layer2"
     showgrid="true"
     showguides="true"
     inkscape:guide-bbox="true"
     inkscape:window-width="1440"
     inkscape:window-height="781"
     inkscape:window-x="0"
     inkscape:window-y="1"
     inkscape:window-maximized="1"
     inkscape:snap-global="true"
     inkscape:snap-grids="true"
     fit-margin-top="0"
     fit-margin-left="0"
     fit-margin-right="0"
     fit-margin-bottom="0">
    <inkscape:grid
       type="xygrid"
       id="grid3338"
       units="mm"
       empspacing="3"
       spacingx="35.43307"
       spacingy="35.43307"
       dotted="false"
       originx="106.29919"
       originy="106.2992" />
    <sodipodi:guide
       position="267.12493,118.4162"
       orientation="1,0"
       id="guide4177" />
    <sodipodi:guide
       position="212.5984,111.80693"
       orientation="0,1"
       id="guide4225" />
    <sodipodi:guide
       position="324.40533,264.92185"
       orientation="0,1"
       id="guide4227" />
  </sodipodi:namedview>
  <metadata
     id="metadata7">
    <rdf:RDF>
      <cc:Work
         rdf:about="">
        <dc:format>image/svg+xml</dc:format>
        <dc:type
           rdf:resource="http://purl.org/dc/dcmitype/StillImage" />
        <dc:title></dc:title>
      </cc:Work>
    </rdf:RDF>
  </metadata>
  <g
     inkscape:groupmode="layer"
     id="layer2"
     inkscape:label="background"
     style="display:inline"
     transform="translate(106.29919,106.29924)">
    <circle
       style="fill:#5f9ea0;fill-opacity:1;stroke:none;stroke-width:53.1496048;stroke-linecap:square;stroke-miterlimit:4;stroke-dasharray:none;stroke-opacity:1"
       id="path4236"
       cx="159.44882"
       cy="159.44882"
       r="265.74802" />
  </g>
  <g
     inkscape:groupmode="layer"
     id="layer3"
     inkscape:label="nose"
     transform="translate(106.29919,106.29924)">
    <path
       style="color:#000000;font-style:normal;font-variant:normal;font-weight:normal;font-stretch:normal;font-size:medium;line-height:normal;font-family:sans-serif;text-indent:0;text-align:start;text-decoration:none;text-decoration-line:none;text-decoration-style:solid;text-decoration-color:#000000;letter-spacing:normal;word-spacing:normal;text-transform:none;direction:ltr;block-progression:tb;writing-mode:lr-tb;baseline-shift:baseline;text-anchor:start;white-space:normal;clip-rule:nonzero;display:inline;overflow:visible;visibility:visible;opacity:1;isolation:auto;mix-blend-mode:normal;color-interpolation:sRGB;color-interpolation-filters:linearRGB;solid-color:#000000;solid-opacity:1;fill:#ecdc81;fill-opacity:1;fill-rule:evenodd;stroke:none;stroke-width:53.1496048;stroke-linecap:round;stroke-linejoin:miter;stroke-miterlimit:4;stroke-dasharray:none;stroke-dashoffset:0;stroke-opacity:1;color-rendering:auto;image-rendering:auto;shape-rendering:auto;text-rendering:auto;enable-background:accumulate"
       d="M 160.15039,27.837891 C 112.29458,27.644619 65.467526,37.906447 24.976562,53.824219 -12.529021,68.56838 -38.263672,94.564624 -38.263672,126.50391 c 0,25.36356 16.955078,42.01171 16.955078,42.01171 10.469689,10.47979 27.4873598,10.37659 37.830078,-0.22851 10.342718,-10.60509 10.018023,-27.61835 -0.720703,-37.82227 0,0 -0.914062,-0.77916 -0.914062,-3.96093 0,-3.38255 12.304301,-20.32623 38.898437,-20.18555 28.319018,0.1498 52.270824,23.09343 52.630864,54.08984 -0.069,0.006 -0.20101,-0.0518 -0.20118,0.0176 -0.0691,28.92398 -22.144748,52.26367 -60.630856,52.26367 -14.14119,0 -24.209965,-0.58387 -34.613281,-1.57617 5.430177,9.34186 17.570875,28.49828 35.832031,47.59961 21.520268,22.5104 39.331028,49.4932 90.597656,53.05078 23.42631,1.62564 23.42516,-28.09271 23.45899,-63.83594 -0.0338,36.07602 -0.0331,65.46218 23.31835,65.16797 51.63085,-0.65051 66.91731,-31.98947 88.50196,-54.69336 17.98706,-18.91973 30.03693,-37.89497 35.58008,-47.43164 -11.77448,1.41668 -24.12808,2.26953 -41.13477,2.26953 -26.40124,0 -54.80757,-23.35782 -54.91797,-52.43552 -0.13166,-34.67594 26.07652,-54.54717 54.42392,-54.57815 13.64042,-0.0149 26.99026,7.5138 31.98242,11.33203 4.33808,3.31796 5.91602,8.77009 5.91602,11.64649 0,-1.61604 -4.01366,2.76367 -4.01368,2.76367 -10.24401,10.72426 -9.7287,27.75803 1.14454,37.84375 10.87325,10.08573 27.89698,9.32069 37.82226,-1.69922 0,0 17.09571,-14.71195 17.0957,-41.38672 0,-15.82532 -6.46083,-31.801819 -17.30078,-44.076169 C 328.4374,70.37604 313.85714,61.158613 295.98438,53.787109 258.19329,38.200426 215.42547,28.061126 160.15039,27.837891 Z"
       id="path4166"
       inkscape:connector-curvature="0"
       sodipodi:nodetypes="ssscscsscsscsscsscssssccscssss" />
  </g>
</svg>
